<svg width="306" height="286" viewBox="0 0 306 286" fill="none" xmlns="http://www.w3.org/2000/svg">
<circle cx="153" cy="143" r="140.5" fill="white" stroke="#6EAFFB" stroke-width="5"/>
<path d="M127.938 131.125C123.812 131.125 120.938 129.167 119.312 125.25C113.312 125.25 106.729 126.708 99.5625 129.625C95.1042 131.458 92.1042 133.146 90.5625 134.688C89.0208 136.229 88.1875 137.438 88.0625 138.312C87.9792 139.188 88.4167 139.938 89.375 140.562C90.3333 141.146 91.6667 141.708 93.375 142.25C95.125 142.792 97.1458 143.333 99.4375 143.875C111.438 146.667 119.042 148.604 122.25 149.688C128.625 151.812 133.396 154.146 136.562 156.688C139.562 159.229 141.062 162.688 141.062 167.062C141.062 170.688 139.938 173.75 137.688 176.25C135.479 178.75 132.542 180.979 128.875 182.938C125.208 184.896 121.104 186.646 116.562 188.188C112.062 189.688 107.292 190.979 102.25 192.062C97.25 193.146 92.3125 194.042 87.4375 194.75C77.8958 196.083 69.75 196.75 63 196.75C50.7083 196.75 41.2292 195.271 34.5625 192.312C32.0625 191.188 30.0208 188.375 28.4375 183.875C27.1875 180.167 26.5625 177.125 26.5625 174.75C26.5625 172.333 26.7708 171 27.1875 170.75C27.6042 170.5 28.4583 170.5 29.75 170.75C31.0417 170.958 32.7292 171.333 34.8125 171.875L42.3125 173.875C53.9375 176.792 66.2292 178.25 79.1875 178.25C88.7292 178.25 96.8125 177.396 103.438 175.688C107.354 174.646 109.438 173.479 109.688 172.188C109.854 171.062 106.771 169.667 100.438 168C97.5625 167.208 94.2292 166.375 90.4375 165.5C72.0625 161.042 60.9792 158.167 57.1875 156.875C53.3958 155.583 50.9167 154.438 49.75 153.438C48.625 152.438 47.6875 151.333 46.9375 150.125C45.5625 147.75 44.875 145.5 44.875 143.375C44.875 141.208 44.9792 139.542 45.1875 138.375C45.4375 137.208 45.7708 136.125 46.1875 135.125C47.0625 133.083 48.1667 131.688 49.5 130.938C60.2083 124.938 75.9375 119.667 96.6875 115.125C115.146 111.042 130.333 109 142.25 109C144.667 109 146.479 109.417 147.688 110.25C149.771 111.792 150.688 113.438 150.438 115.188C150.188 116.938 149.646 118.562 148.812 120.062C148.021 121.521 147.021 122.854 145.812 124.062C144.604 125.229 143.25 126.271 141.75 127.188C140.292 128.062 138.771 128.792 137.188 129.375C134.021 130.542 130.938 131.125 127.938 131.125ZM161.062 141.312C158.396 141.312 157.062 140.042 157.062 137.5C157.062 136.333 157.667 134.229 158.875 131.188C160.083 128.104 161.125 125.708 162 124C164 120 166.042 117.229 168.125 115.688C171.458 113.229 184.479 111 207.188 109C217.062 108.167 224.25 107.75 228.75 107.75C233.25 107.75 236.438 107.812 238.312 107.938C240.229 108.062 242.208 108.292 244.25 108.625C246.292 108.917 248.333 109.312 250.375 109.812C252.417 110.271 254.354 110.854 256.188 111.562C260.146 113.104 262.917 115.021 264.5 117.312C269.458 124.521 271.938 130.396 271.938 134.938C271.938 140.021 268.062 145 260.312 149.875C257.979 151.375 255.479 152.875 252.812 154.375C243.104 159.625 237.417 162.729 235.75 163.688C239.25 170.479 246.104 177.5 256.312 184.75C257.521 185.583 258.479 186.208 259.188 186.625C262.312 188.458 266 188.167 270.25 185.75C271.417 185.042 272.604 184.688 273.812 184.688C275.021 184.688 276.083 185.146 277 186.062C277.917 186.938 278.375 187.917 278.375 189C278.375 193.958 275.062 199.292 268.438 205C263.521 209.25 259.083 211.375 255.125 211.375C251.917 211.375 244.938 206.667 234.188 197.25C228.104 191.917 223.167 187.146 219.375 182.938C215.583 178.729 212.979 175.604 211.562 173.562C210.146 171.479 209.438 169.688 209.438 168.188C209.438 166.688 209.792 165.354 210.5 164.188C211.25 163.021 212.25 161.896 213.5 160.812C215.458 159.146 218.25 157.375 221.875 155.5C225.5 153.583 228.458 151.771 230.75 150.062C233.042 148.354 235.021 146.583 236.688 144.75C240.354 140.875 242.188 137.375 242.188 134.25C242.188 132.208 241.562 130.5 240.312 129.125C238.021 126.667 235.896 125.438 233.938 125.438C230.562 125.438 226.438 125.667 221.562 126.125L213.938 139.625C204.229 157.25 197.604 173.125 194.062 187.25C192.646 192.75 187.292 195.5 178 195.5C170.333 195.5 165.438 193.708 163.312 190.125C162.604 188.917 162.333 187.75 162.5 186.625C162.708 185.458 163.271 183.958 164.188 182.125C165.104 180.25 166.354 177.917 167.938 175.125L173.5 165.625L180.312 154.438L188 142.375L196 130.375C181.458 133.5 170.854 136.875 164.188 140.5C163.188 141.042 162.146 141.312 161.062 141.312Z" fill="#32384E"/>
</svg>
